<?xml version="1.0" encoding="UTF-8"?>
<svg version="1.1" xmlns="http://www.w3.org/2000/svg" width="70" height="69">
<path d="M0 0 C2.24537259 0.60322708 4.49532694 1.18683111 6.74584961 1.77050781 C8.1869258 2.15733484 9.62769331 2.54531409 11.06811523 2.93457031 C12.0681382 3.18948746 12.0681382 3.18948746 13.08836365 3.44955444 C17.16832648 4.58191123 19.78884227 5.75755661 22.29077148 9.22363281 C23.98903038 14.47456035 22.70624417 18.74407525 21.27124023 23.87597656 C21.05260818 24.69433487 20.83397614 25.51269318 20.60871887 26.35585022 C19.90987406 28.96081604 19.19431949 31.56084943 18.47827148 34.16113281 C18.00777194 35.90497743 17.53835982 37.64911582 17.07006836 39.39355469 C16.01154265 43.32351305 14.95150267 47.25287673 13.85287476 51.17184448 C13.48150434 52.5274201 13.13047889 53.88875265 12.80117798 55.25515747 C11.61002502 60.01079712 11.61002502 60.01079712 8.29077148 62.22363281 C6.13465881 62.49105835 6.13465881 62.49105835 3.60742188 62.51416016 C2.65956314 62.52691986 1.71170441 62.53967957 0.73512268 62.55282593 C-0.79774132 62.5561644 -0.79774132 62.5561644 -2.36157227 62.55957031 C-3.41325089 62.56622711 -4.4649295 62.57288391 -5.54847717 62.57974243 C-7.77351125 62.58987127 -9.99857571 62.59455938 -12.22363281 62.59423828 C-15.63014686 62.59861153 -19.03536565 62.63493008 -22.44165039 62.67285156 C-24.60245325 62.67871958 -26.76326226 62.68268907 -28.92407227 62.68457031 C-30.45389992 62.70612686 -30.45389992 62.70612686 -32.01463318 62.7281189 C-35.92981551 62.70278677 -38.83937908 62.67057958 -42.35009766 60.86669922 C-44.5701721 56.54937824 -44.27856913 52.25675259 -44.24047852 47.47363281 C-44.24430542 46.42336914 -44.24813232 45.37310547 -44.2520752 44.29101562 C-44.25479547 42.07193035 -44.24742628 39.85281307 -44.23071289 37.63378906 C-44.20930597 34.23592686 -44.23051177 30.8401792 -44.25610352 27.44238281 C-44.25346026 25.28612814 -44.24833533 23.12987479 -44.24047852 20.97363281 C-44.24857544 19.95688477 -44.25667236 18.94013672 -44.26501465 17.89257812 C-44.1719266 10.89521167 -44.1719266 10.89521167 -41.87915039 7.56738281 C-39.03370843 5.80530894 -36.9924692 5.92515639 -33.70922852 6.22363281 C-33.55067383 5.60875 -33.39211914 4.99386719 -33.22875977 4.36035156 C-32.17010414 0.69307489 -31.30997639 -2.1192992 -28.70922852 -4.96386719 C-20.07924304 -7.30115492 -8.51525445 -2.30187832 0 0 Z " fill="#97A8EE" transform="translate(44.709228515625,6.7763671875)"/>
<path d="M0 0 C2.24537259 0.60322708 4.49532694 1.18683111 6.74584961 1.77050781 C8.1869258 2.15733484 9.62769331 2.54531409 11.06811523 2.93457031 C12.0681382 3.18948746 12.0681382 3.18948746 13.08836365 3.44955444 C17.16832648 4.58191123 19.78884227 5.75755661 22.29077148 9.22363281 C24.02832387 14.53889565 22.65516008 18.92451015 21.20092773 24.12207031 C20.97755234 24.95703033 20.75417694 25.79199036 20.52403259 26.6522522 C19.81176328 29.3042557 19.08280636 31.95133284 18.35327148 34.59863281 C17.86583292 36.4017184 17.37949255 38.20510126 16.89428711 40.00878906 C15.70580555 44.41728093 14.50234247 48.82143318 13.29077148 53.22363281 C12.96077148 53.22363281 12.63077148 53.22363281 12.29077148 53.22363281 C12.28142578 51.97227539 12.27208008 50.72091797 12.26245117 49.43164062 C12.22256667 44.78707331 12.15681207 40.14316946 12.08325195 35.49902344 C12.05503341 33.48934454 12.03382328 31.47955447 12.01977539 29.46972656 C11.99835813 26.57982432 11.95171445 23.69125991 11.90014648 20.80175781 C11.89891785 19.90370422 11.89768921 19.00565063 11.89642334 18.0803833 C11.80987677 14.39105942 11.67736461 11.90484731 9.83764648 8.66308594 C5.9512205 6.46653996 2.32779557 6.62042274 -2.06860352 6.61425781 C-3.42517059 6.58945343 -3.42517059 6.58945343 -4.80914307 6.56414795 C-7.69257372 6.51563302 -10.57547686 6.49428937 -13.45922852 6.47363281 C-15.41628636 6.44547604 -17.37331958 6.41554902 -19.33032227 6.38378906 C-24.12324759 6.30987312 -28.91587948 6.26031983 -33.70922852 6.22363281 C-33.25807266 4.76696333 -32.79803359 3.31304301 -32.33422852 1.86035156 C-32.07899414 1.05041748 -31.82375977 0.2404834 -31.56079102 -0.59399414 C-30.70922852 -2.77636719 -30.70922852 -2.77636719 -28.70922852 -4.96386719 C-20.07924304 -7.30115492 -8.51525445 -2.30187832 0 0 Z " fill="#244DDA" transform="translate(44.709228515625,6.7763671875)"/>
<path d="M0 0 C6.6 0 13.2 0 20 0 C20 6.93 20 13.86 20 21 C20.99 21 21.98 21 23 21 C23 21.99 23 22.98 23 24 C14.42 24 5.84 24 -3 24 C-3 23.01 -3 22.02 -3 21 C-2.01 21 -1.02 21 0 21 C0 14.07 0 7.14 0 0 Z " fill="#F9F9FE" transform="translate(19,29)"/>
<path d="M0 0 C0.99 0.495 0.99 0.495 2 1 C2.625 3.0625 2.625 3.0625 3 5 C3.99580078 5.19916016 3.99580078 5.19916016 5.01171875 5.40234375 C9.00585938 6.20117188 9.00585938 6.20117188 13 7 C13.85207031 7.16628906 14.70414063 7.33257812 15.58203125 7.50390625 C19.7986085 8.36901984 23.70642239 9.57022731 27.75 11.0625 C29.22726563 11.60583984 29.22726563 11.60583984 30.734375 12.16015625 C31.48203125 12.43730469 32.2296875 12.71445312 33 13 C33 13.66 33 14.32 33 15 C34.32 15.33 35.64 15.66 37 16 C37.495 17.98 37.495 17.98 38 20 C41.63 20 45.26 20 49 20 C49 20.33 49 20.66 49 21 C42.66468985 21.10141463 36.32958898 21.17147114 29.99365234 21.21972656 C27.83829933 21.23984276 25.68300089 21.26713925 23.52783203 21.30175781 C20.42987605 21.35027486 17.33264154 21.37296873 14.234375 21.390625 C13.27070007 21.41127014 12.30702515 21.43191528 11.31414795 21.45318604 C4.67381082 21.45541359 4.67381082 21.45541359 1.38476562 19.23242188 C-0.1041798 16.83204864 -0.47519697 15.68149994 -0.390625 12.890625 C-0.37773437 12.13652344 -0.36484375 11.38242187 -0.3515625 10.60546875 C-0.31804688 9.82816406 -0.28453125 9.05085938 -0.25 8.25 C-0.23195312 7.45722656 -0.21390625 6.66445313 -0.1953125 5.84765625 C-0.14833082 3.89791652 -0.07659044 1.94880122 0 0 Z " fill="#E6E6FC" transform="translate(1,48)"/>
<path d="M0 0 C1.47726562 0.05414063 1.47726562 0.05414063 2.984375 0.109375 C3.73203125 0.15578125 4.4796875 0.2021875 5.25 0.25 C4.24037994 4.57694312 3.29606593 8.30401571 1.25 12.25 C1.25 13.24 1.25 14.23 1.25 15.25 C0.02463119 17.25048582 -1.27872267 19.20379997 -2.625 21.125 C-5.16429219 24.75646088 -7.28071932 28.05868354 -8.75 32.25 C-9.08 32.25 -9.41 32.25 -9.75 32.25 C-9.86605098 27.66687916 -9.93720362 23.08413551 -10 18.5 C-10.03351562 17.19804687 -10.06703125 15.89609375 -10.1015625 14.5546875 C-10.11445313 13.30429687 -10.12734375 12.05390625 -10.140625 10.765625 C-10.16157227 9.61352539 -10.18251953 8.46142578 -10.20410156 7.27441406 C-9.28499671 1.15297811 -5.74411978 -0.27352951 0 0 Z " fill="#B9C3F3" transform="translate(10.75,12.75)"/>
<path d="M0 0 C0.99 0.495 0.99 0.495 2 1 C2.625 3.0625 2.625 3.0625 3 5 C3.99580078 5.19916016 3.99580078 5.19916016 5.01171875 5.40234375 C9.00585938 6.20117188 9.00585938 6.20117188 13 7 C13.85207031 7.16628906 14.70414063 7.33257812 15.58203125 7.50390625 C19.7986085 8.36901984 23.70642239 9.57022731 27.75 11.0625 C29.22726563 11.60583984 29.22726563 11.60583984 30.734375 12.16015625 C31.48203125 12.43730469 32.2296875 12.71445312 33 13 C33 13.66 33 14.32 33 15 C33.9590625 15.1546875 33.9590625 15.1546875 34.9375 15.3125 C35.618125 15.539375 36.29875 15.76625 37 16 C37.495 17.485 37.495 17.485 38 19 C33.71181631 17.62894807 29.51278841 16.22102949 25.375 14.4375 C21.95964527 12.98281187 18.58098749 11.96411202 15 11 C14.01 10.67 13.02 10.34 12 10 C12.33 10.99 12.66 11.98 13 13 C11.68 12.34 10.36 11.68 9 11 C9 10.01 9 9.02 9 8 C6.36 7.67 3.72 7.34 1 7 C1.08746284 8.43861294 1.19565348 9.87597508 1.3125 11.3125 C1.37050781 12.11300781 1.42851563 12.91351563 1.48828125 13.73828125 C2.10637679 16.47016915 2.82643991 17.27079849 5 19 C7.07033904 19.46918962 7.07033904 19.46918962 9.37963867 19.43237305 C10.70066841 19.46206429 10.70066841 19.46206429 12.04838562 19.49235535 C12.99534805 19.49874527 13.94231049 19.50513519 14.91796875 19.51171875 C16.37654045 19.53864555 16.37654045 19.53864555 17.86457825 19.56611633 C20.97217464 19.62032467 24.07961652 19.65414898 27.1875 19.6875 C29.29364134 19.72066376 31.39976227 19.75515253 33.50585938 19.79101562 C38.67046161 19.87605731 43.83501719 19.94281841 49 20 C49 20.33 49 20.66 49 21 C42.66468985 21.10141463 36.32958898 21.17147114 29.99365234 21.21972656 C27.83829933 21.23984276 25.68300089 21.26713925 23.52783203 21.30175781 C20.42987605 21.35027486 17.33264154 21.37296873 14.234375 21.390625 C13.27070007 21.41127014 12.30702515 21.43191528 11.31414795 21.45318604 C4.67381082 21.45541359 4.67381082 21.45541359 1.38476562 19.23242188 C-0.1041798 16.83204864 -0.47519697 15.68149994 -0.390625 12.890625 C-0.37773437 12.13652344 -0.36484375 11.38242187 -0.3515625 10.60546875 C-0.31804688 9.82816406 -0.28453125 9.05085938 -0.25 8.25 C-0.23195312 7.45722656 -0.21390625 6.66445313 -0.1953125 5.84765625 C-0.14833082 3.89791652 -0.07659044 1.94880122 0 0 Z " fill="#BFC8F4" transform="translate(1,48)"/>
<path d="M0 0 C5.64834695 0.49546903 9.81817196 1.54544988 15 4 C16.64432272 4.73256685 18.29019793 5.46165753 19.9375 6.1875 C21.29187368 6.79120246 22.64611467 7.39520315 24 8 C24 8.33 24 8.66 24 9 C17.73 9 11.46 9 5 9 C4.34 7.35 3.68 5.7 3 4 C2.04175747 2.63634717 1.05278825 1.29205831 0 0 Z " fill="#D3D7F9" transform="translate(15,59)"/>
<path d="M0 0 C-0.16252167 7.90446304 -1.59006704 13.40950978 -6 20 C-6.33 20 -6.66 20 -7 20 C-7.1081866 17.41554227 -7.18737237 14.83562648 -7.25 12.25 C-7.28351562 11.52039062 -7.31703125 10.79078125 -7.3515625 10.0390625 C-7.41664 6.45979975 -7.30470078 4.41928911 -5.171875 1.484375 C-3 0 -3 0 0 0 Z " fill="#D8DBF9" transform="translate(9,14)"/>
<path d="M0 0 C3.3 0 6.6 0 10 0 C10 2.31 10 4.62 10 7 C9.01 7 8.02 7 7 7 C7 5.68 7 4.36 7 3 C5.68 3 4.36 3 3 3 C3 4.32 3 5.64 3 7 C2.01 7 1.02 7 0 7 C0 4.69 0 2.38 0 0 Z " fill="#AAB8F1" transform="translate(24,43)"/>
<path d="M0 0 C2.97 0 5.94 0 9 0 C6.42105263 11.05263158 6.42105263 11.05263158 2 14 C2.66 9.71 3.32 5.42 4 1 C2.68 0.67 1.36 0.34 0 0 Z " fill="#AEBAF1" transform="translate(7,13)"/>
<path d="M0 0 C0.66 0.33 1.32 0.66 2 1 C1.01773437 1.76570312 1.01773437 1.76570312 0.015625 2.546875 C-2.7247093 5.88201054 -2.40756601 7.99571776 -2.25 12.25 C-2.21390625 13.51328125 -2.1778125 14.7765625 -2.140625 16.078125 C-2.09421875 17.04234375 -2.0478125 18.0065625 -2 19 C-1.67 18.34 -1.34 17.68 -1 17 C-0.34 17 0.32 17 1 17 C-0.07401108 19.91517292 -0.77810176 21.77810176 -3 24 C-4.6907922 20.61841559 -4.26889059 16.84052188 -4.3125 13.125 C-4.34150391 12.30902344 -4.37050781 11.49304687 -4.40039062 10.65234375 C-4.46465855 4.59138362 -4.46465855 4.59138362 -1.98046875 1.4296875 C-1.32691406 0.95789062 -0.67335938 0.48609375 0 0 Z " fill="#C3CDF3" transform="translate(5,13)"/>
<path d="M0 0 C0.33 0 0.66 0 1 0 C1.7013076 6.59229145 -0.50397814 10.49376557 -4 16 C-4.33 16 -4.66 16 -5 16 C-5.3510188 11.08573674 -4.40977137 8.26344166 -2 4 C-1.608125 3.21625 -1.21625 2.4325 -0.8125 1.625 C-0.544375 1.08875 -0.27625 0.5525 0 0 Z " fill="#CFD4F8" transform="translate(7,18)"/>
<path d="M0 0 C3.89759919 0.2657454 5.56306771 0.56306771 8.375 3.375 C10 6 10 6 10 9 C8.35 9 6.7 9 5 9 C4.731875 8.2575 4.46375 7.515 4.1875 6.75 C3.05770579 4.13363446 1.79106798 2.19812889 0 0 Z " fill="#DDDEFA" transform="translate(15,59)"/>
<path d="M0 0 C0.66 0 1.32 0 2 0 C2 0.66 2 1.32 2 2 C2.99 2 3.98 2 5 2 C5 2.99 5 3.98 5 5 C4.01 5 3.02 5 2 5 C2 5.66 2 6.32 2 7 C1.34 7 0.68 7 0 7 C0 6.34 0 5.68 0 5 C-0.99 5 -1.98 5 -3 5 C-3 4.01 -3 3.02 -3 2 C-2.01 2 -1.02 2 0 2 C0 1.34 0 0.68 0 0 Z " fill="#A5B4F0" transform="translate(28,34)"/>
<path d="M0 0 C2.3125 -0.3125 2.3125 -0.3125 5 0 C6.8125 2.5 6.8125 2.5 8 5 C4.5625 4.1875 4.5625 4.1875 1 3 C0.67 2.01 0.34 1.02 0 0 Z " fill="#A4B2F1" transform="translate(17,53)"/>
<path d="M0 0 C0.66 0 1.32 0 2 0 C0.75023244 3.65316671 0.32901247 4.78065836 -3 7 C-2.25 2.25 -2.25 2.25 0 0 Z " fill="#E1E2FA" transform="translate(5,15)"/>
</svg>
